<svg width="140" height="140" viewBox="0 0 140 140" xmlns="http://www.w3.org/2000/svg">
  <defs>
    <linearGradient id="mfcCrest" x1="0" y1="0" x2="0" y2="1">
      <stop offset="0" stop-color="#2563eb"/>
      <stop offset="1" stop-color="#0a1f44"/>
    </linearGradient>
  </defs>
  <!-- Shield -->
  <path d="M70 8 L122 26 V66 C122 98 100 122 70 132 C40 122 18 98 18 66 V26 Z"
        fill="url(#mfcCrest)" stroke="#ffffff" stroke-width="3.5"/>
  <!-- Inner hairline -->
  <path d="M70 16 L114 31 V65 C114 92 95 113 70 122 C45 113 26 92 26 65 V31 Z"
        fill="none" stroke="#7da9ff" stroke-width="1.2" opacity="0.5"/>
  <!-- Wordmark -->
  <text x="70" y="52" font-family="Arial, Helvetica, sans-serif" font-size="26" font-weight="800"
        letter-spacing="1" fill="#ffffff" text-anchor="middle">MATE</text>
  <text x="70" y="74" font-family="Arial, Helvetica, sans-serif" font-size="15" font-weight="700"
        letter-spacing="5" fill="#7da9ff" text-anchor="middle">FC</text>
  <!-- Soccer ball -->
  <g transform="translate(70 99)">
    <circle r="15" fill="#ffffff"/>
    <circle r="15" fill="none" stroke="#0a1f44" stroke-width="1"/>
    <path d="M0 -7 L6.7 -2.2 L4.1 5.7 H-4.1 L-6.7 -2.2 Z" fill="#0a1f44"/>
    <path d="M0 -7 L0 -15 M6.7 -2.2 L13.5 -4.8 M4.1 5.7 L8.5 12.5 M-4.1 5.7 L-8.5 12.5 M-6.7 -2.2 L-13.5 -4.8"
          stroke="#0a1f44" stroke-width="1.4"/>
  </g>
</svg>
